# xmcd CD database file generated by Grip 3.2.0
# 
# Track frame offsets:
#       150
#       17544
#       30719
#       47989
#       61998
#       74381
#       92096
#       111846
#       126410
#       144747
#       161010
#       181111
#       194712
#       208768
# 
# Disc length: 2960 seconds
# 
# Revision: 1
# Processed by: cddbd v1.5.2PL0 Copyright (c) Steve Scherf et al.
# Submitted via: Grip 3.2.0
# 
DISCID=d20b8e0e
DTITLE=Ilse de lange - World of hurt
DYEAR=1998
DGENRE=Blues
TTITLE0=Flying  Blind
TTITLE1=Lonely Too
TTITLE2=Just Like The Moon
TTITLE3=What Does Your Heart Say Now
TTITLE4=I'd Be Yours
TTITLE5=World Of Hurt
TTITLE6=All The Woman You'll Ever Need
TTITLE7=If You Had The Heart
TTITLE8=Flying Solo
TTITLE9=Old Tears
TTITLE10=I'm Not So Tough
TTITLE11=When We Don't Talk
TTITLE12=Tap Dancing On  The Highwire
TTITLE13=You Are The Dream
EXTD=
EXTT0=
EXTT1=
EXTT2=
EXTT3=
EXTT4=
EXTT5=
EXTT6=
EXTT7=
EXTT8=
EXTT9=
EXTT10=
EXTT11=
EXTT12=
EXTT13=
PLAYORDER=
